<?xml version="1.0" encoding="utf-8"?>
<!-- Generator: Adobe Illustrator 26.0.1, SVG Export Plug-In . SVG Version: 6.00 Build 0)  -->
<svg version="1.1" id="Layer_1" xmlns="http://www.w3.org/2000/svg" xmlns:xlink="http://www.w3.org/1999/xlink" x="0px" y="0px"
	 viewBox="0 0 542.5 542.5" style="enable-background:new 0 0 542.5 542.5;" xml:space="preserve">
<style type="text/css">
	.st0{fill:#008593;}
	.st1{fill:#E5BE00;}
</style>
<g>
	<path class="st0" d="M452.8,277.2c4-4,6.8-8.8,8.6-13.9h34.1c13.2,0,24-10.8,24-24V79.1c0-13.2-10.8-24-24-24H271.3
		c-13.2,0-24,10.8-24,24v160.2c0,13.2,10.8,24,24,24H364l-16,16h-24.8c-15,0-29.1,5.8-39.6,16.4L240.2,339c-5.8,5.8-9,13.5-9,21.7
		c0,5.3,1.4,10.3,3.7,14.6H23v144.1h384.4V415.8l24.5-8.2l87.6,17.5V309.5l-86.2,17.2l-17.2-12.9L452.8,277.2z M350.7,356.6
		l-19.1-15.3c-4.4-3.5-9.2-6.4-14.4-8.6l58.1-58.1l28.7,28.7L350.7,356.6z M441.5,265.9L415.4,292l-28.7-28.7l26.1-26.1
		c3.8-3.8,8.9-5.9,14.4-5.9c11.2,0,20.3,9.1,20.3,20.3C447.4,256.9,445.3,262,441.5,265.9L441.5,265.9z M271.2,247.2
		c-4.4,0-8-3.6-8-8V79.1c0-4.4,3.6-8,8-8h224.2c4.4,0,8,3.6,8,8v160.2c0,4.4-3.6,8-8,8H463c-0.7-5.9-2.6-11.3-5.8-16h30.2v-16H279.3
		v16h116.8l-16,16H271.2z M251.5,350.4l43.4-43.4c7.6-7.6,17.6-11.7,28.3-11.7h8.8l-32.6,32.6c-2.6-0.3-5.1-0.5-7.7-0.5
		c-15.7,0-28.5,12.8-28.5,28.5c0,2.5,0.3,4.9,1,7.3l-10,10c-4.2-2.6-7-7.2-7-12.4C247.2,356.8,248.8,353.1,251.5,350.4L251.5,350.4z
		 M218.1,437.6l22.9,22.9l-27.1,10.8c-3.4-0.5-6.1-3.2-6.6-6.6L218.1,437.6z M255.2,452.1l-28.7-28.7l46.4-46.4
		c1.3,1.2,2.7,2.2,4.2,3.1l31.3,18.8L255.2,452.1z M39,503.5V391.4h196.9l-27.5,27.5l-17.2,43v1.5c0,13.2,10.8,24,24,24h1.5l43-17.2
		l62.8-62.8l7.3,4.4c12.6,7.5,27,11.5,41.6,11.5c6.7,0,13.4-0.8,19.8-2.5v82.6L39,503.5z M439.4,341.9l64.1-12.8v76.6l-64.1-12.8
		V341.9z M423.4,339.3v54.3l-31.3,10.4c-17.8,5.9-37.9,3.7-53.9-5.9l-52.8-31.7c-3.7-2.2-6-6.3-6-10.7c0-6.9,5.6-12.4,12.4-12.4
		c10.8,0,21.4,3.7,29.9,10.5l26.9,21.5l42.9,0v-16l-20.7,0l34-34L423.4,339.3z"/>
	<path class="st0" d="M55,407.4h120.1v16H55V407.4z"/>
	<path class="st0" d="M55,439.4h120.1v16H55V439.4z"/>
	<path class="st0" d="M55,471.5h120.1v16H55V471.5z"/>
	<path class="st0" d="M295.3,487.5h80.1v-48h-80.1V487.5z M311.3,455.4h48v16h-48V455.4z"/>
	<path class="st0" d="M215.2,199.2H23v160.2h192.2V199.2z M39,215.2h160.2v107.2l-24.9-41.6c-6.5-10.9-18.5-17.6-31.1-17.6
		s-24.6,6.7-31.1,17.6l-37.5,62.5H39V215.2z M193,343.3H93.2l32.5-54.2c3.6-6.1,10.3-9.8,17.4-9.8s13.7,3.8,17.4,9.8L193,343.3z"/>
	<path class="st0" d="M63,167.1h128.1c13.2,0,24-10.8,24-24V47c0-13.2-10.8-24-24-24H63c-13.2,0-24,10.8-24,24v96.1
		C39,156.4,49.8,167.1,63,167.1z M55,47c0-4.4,3.6-8,8-8h128.1c4.4,0,8,3.6,8,8v96.1c0,4.4-3.6,8-8,8H63c-4.4,0-8-3.6-8-8V47z"/>
	<path class="st0" d="M79.1,279.3c13.2,0,24-10.8,24-24c0-13.2-10.8-24-24-24s-24,10.8-24,24C55,268.5,65.8,279.3,79.1,279.3z
		 M79.1,247.2c4.4,0,8,3.6,8,8s-3.6,8-8,8s-8-3.6-8-8S74.6,247.2,79.1,247.2z"/>
	<path class="st0" d="M108,135.1c3.2,0,6.5-0.8,9.4-2.2l38.2-19.1c7.1-3.6,11.6-10.8,11.6-18.8s-4.4-15.2-11.6-18.8l-38.1-19.1
		c-2.9-1.4-6.1-2.2-9.4-2.2c-11.6,0-21,9.4-21,21v38.1C87.1,125.7,96.5,135.1,108,135.1L108,135.1z M103.1,76c0-2.7,2.2-4.9,4.9-4.9
		c0.8,0,1.5,0.2,2.2,0.5l38.1,19.1c1.7,0.8,2.7,2.5,2.7,4.4c0,1.9-1,3.6-2.7,4.4l-38.1,19.1c-3.1,1.6-7.2-0.9-7.2-4.4L103.1,76z"/>
	<path class="st1" d="M375.4,87.1h-96.1v80.1h96.1V87.1z M359.3,151.1h-64.1v-48h64.1V151.1z"/>
	<path class="st0" d="M391.4,87.1h96.1v16h-96.1V87.1z"/>
	<path class="st0" d="M471.5,119.1h16v16h-16V119.1z"/>
	<path class="st0" d="M391.4,119.1h64.1v16h-64.1V119.1z"/>
	<path class="st0" d="M391.4,151.1h96.1v16h-96.1V151.1z"/>
	<path class="st0" d="M279.3,183.2h208.2v16H279.3V183.2z"/>
</g>
</svg>
