<?xml version="1.0" encoding="utf-8"?>
<!-- Generator: Adobe Illustrator 26.0.1, SVG Export Plug-In . SVG Version: 6.00 Build 0)  -->
<svg version="1.1" id="Layer_1" xmlns="http://www.w3.org/2000/svg" xmlns:xlink="http://www.w3.org/1999/xlink" x="0px" y="0px"
	 viewBox="0 0 433.4 443.5" style="enable-background:new 0 0 433.4 443.5;" xml:space="preserve">
<style type="text/css">
	.st0{fill:#E0FFEE;}
</style>
<g>
	<path class="st0" d="M414.7,172.7v-0.5l-69.1-99.2l-109-53.7h-0.5L107.3,57.1l-69.1,80.8v0.5L18.8,270.9v0.5l68.5,99.2l109,53.7
		h0.5l128.9-37.9l68-80.8L414.7,172.7z M298.6,385.4c-1,0.5-2,1-2,2l-95.7-19.4v-2.6c0-2.6-0.5-4.6-2-6.7l84.9-51.2
		c4.6,7.2,11.8,12.3,20.5,13.3L298.6,385.4z M361,187.5l-62.9-25.1c1.5-3.1,2-6.7,2-10.7c0-7.7-3.1-14.3-7.7-18.9l42.5-48.1
		c1,1,2.6,1.5,4.1,1.5c0.5,0,1,0,1.5-0.5l31.7,91C366.6,178.8,363,182.9,361,187.5L361,187.5z M188.1,353.2h-1l1.5-65.5
		c15.3-0.5,28.1-10.2,33.2-24l58.3,20.5c-0.5,2.6-1,5.1-1,8.2c0,5.1,1.5,10.2,3.6,14.3l-84.9,51.2
		C195.2,355.3,192.2,353.2,188.1,353.2L188.1,353.2z M82.2,258.1l41.4-100.8c2,0.5,4.1,1,6.7,1c2.6,0,5.1-0.5,7.2-1.5l31.7,60.4
		c-11.8,6.1-19.9,18.9-19.9,33.2c0,2.6,0,4.6,0.5,6.7l-59.3,11.3C89.4,263.7,86.3,260.1,82.2,258.1L82.2,258.1z M245.4,151.7
		c0,8.2,3.6,15.3,9.7,20.5l-43.5,50.1c-6.7-6.1-15.3-9.7-25.1-9.7c-5.6,0-11.3,1.5-15.9,3.6L139,155.8c5.1-2.6,9.2-7.7,10.2-13.3
		L245.4,151.7z M280.7,282.6l-58.3-20.5c1-3.6,2-7.7,2-11.8c0-10.2-4.1-19.9-11.3-26.6l43.5-50.1c4.6,3.6,10.2,5.6,16.4,5.6
		c1.5,0,3.6,0,5.1-0.5l21,85.4C290.4,267.3,283.7,273.9,280.7,282.6L280.7,282.6z M332.8,83.7l-42.5,48.1
		c-4.6-4.6-10.7-7.2-17.4-7.2c-5.1,0-9.7,1.5-13.3,3.6l-34.3-59.8c3.1-2,5.1-5.1,6.1-8.7l99.7,18.9V79
		C331.3,81.1,331.8,82.1,332.8,83.7L332.8,83.7z M206.5,67.3c2.6,2.6,6.1,4.1,10.2,4.1c2.6,0,4.6-0.5,6.7-1.5l34.3,59.3
		c-6.7,4.6-11.3,12.3-11.8,21l-96.2-8.7c0-1,0.5-1.5,0.5-2.6c0-4.6-1.5-9.2-4.6-12.3L206.5,67.3z M121.6,156.8L80.7,257.6
		c-2-0.5-3.6-1-5.6-1c-1,0-2.6,0-3.6,0.5L38.7,165l72.6-18.4C113.4,150.7,117,154.8,121.6,156.8L121.6,156.8z M90.9,270.4l59.3-11.3
		c4.1,16.4,18.4,28.6,35.8,28.6l-1.5,66c-3.1,0.5-5.6,2.6-7.2,5.1l-88.5-76.7c1.5-2.6,2.6-5.6,2.6-9.2
		C91.4,271.9,91.4,270.9,90.9,270.4L90.9,270.4z M308.8,262.7c-2.6,0-5.6,0.5-8.2,1l-21-85.4c7.7-2,13.8-7.2,17.4-14.3l63.4,25.1
		c-0.5,2-1,4.1-1,6.7c0,6.1,2.6,11.3,7.2,15.3l-40.9,56.3C320,264.2,314.9,262.7,308.8,262.7L308.8,262.7z M379.4,175.2
		c-2.6,0-4.6,0.5-6.7,1l-31.7-91c0,0,0.5,0,0.5-0.5l70.1,87.5l-15.9,10.7C391.7,178.3,386,175.2,379.4,175.2L379.4,175.2z
		 M398.3,152.2l-54.7-68.5c1-1,1.5-2.6,1.5-4.6c0-1.5-0.5-2.6-1-3.6l1-0.5L398.3,152.2z M343.6,73.4l-0.5,0.5c-1-1-2.6-2-4.6-2
		s-4.1,1-5.1,2.6l-72.6-41.9L343.6,73.4z M236.2,21.2l95.7,55.2V77L231.6,58.1v-1.5c0-5.6-3.1-10.2-7.2-12.8L236.2,21.2z
		 M234.1,21.2l-11.3,21.5c-2-1-4.1-1.5-6.1-1.5c-8.2,0-14.3,6.1-14.8,14.3l-88.5,1.5L234.1,21.2z M201.9,57.1c0,3.1,1.5,6.1,3.6,8.7
		l-60.9,58.8c-3.6-3.6-8.7-6.1-14.3-6.1c-2,0-3.6,0.5-5.1,1l-16.9-60.9L201.9,57.1z M106.2,60.1l16.4,60.4
		c-7.7,3.1-12.8,10.2-12.8,18.4c0,2,0.5,3.6,1,5.6l-71.6,18.4L106.2,60.1z M39.7,138.9l57.8-68.5l-58.8,90L39.7,138.9z M36.7,160.9
		v3.1l-2,12.3L36.7,160.9z M37.7,167.5l31.7,90c-5.6,2-10.2,7.2-11.3,13.3l-37.3-0.5L37.7,167.5z M21.3,271.9l36.8,1v0.5
		c0,9.2,7.7,16.4,16.4,16.4h2L86.8,367L21.3,271.9z M78.6,289.3c3.6-1,6.7-3.1,8.7-5.6l89,76.7c-1,1.5-1.5,3.6-1.5,5.6l-85.9,3.1
		L78.6,289.3z M91.9,370.6l83.4-3.1c1,6.1,5.6,10.7,11.8,10.7l9.2,43.5L91.9,370.6z M189.1,378.8c5.1-0.5,9.2-3.6,10.7-8.2
		l95.7,19.4l-97.7,32.7L189.1,378.8z M242.3,409.5l54.7-18.4c0.5,0.5,1.5,1,2.6,1c1.5,0,2.6-1,3.1-2.6l11.8-1.5L242.3,409.5z
		 M326.2,384.9l-23,3.1v-0.5l82.4-73.1L326.2,384.9z M301.6,386c-0.5,0-0.5-0.5-1-0.5l5.1-63.4h3.1c14.3,0,26.6-10.2,29.2-24
		l54.2,7.2L301.6,386z M338.5,296.4c0-1.5,0.5-2.6,0.5-4.1c0-9.7-5.1-18.9-12.3-24l40.9-56.3c3.6,2.6,7.7,4.1,12.3,4.1h1l12.8,88
		L338.5,296.4z M394.2,298.5l-11.8-82.9c9.7-1.5,17.4-9.7,17.4-19.9c0-4.1-1-7.7-3.1-11.3l15.9-10.2L394.2,298.5z"/>
</g>
</svg>
