<?xml version="1.0" encoding="utf-8"?>
<!-- Generator: Adobe Illustrator 26.0.1, SVG Export Plug-In . SVG Version: 6.00 Build 0)  -->
<svg version="1.1" id="Layer_1" xmlns="http://www.w3.org/2000/svg" xmlns:xlink="http://www.w3.org/1999/xlink" x="0px" y="0px"
	 viewBox="0 0 461.2 438.5" style="enable-background:new 0 0 461.2 438.5;" xml:space="preserve">
<style type="text/css">
	.st0{fill:#008593;stroke:#008593;stroke-width:3;stroke-miterlimit:10;}
</style>
<path class="st0" d="M310.9,348.1c-5,7.9-16.1,13.5-32.6,17.3c-18,4.1-43.2,6.4-74.8,7.3c-7.1,0.2-7.4-10.6-0.3-10.8
	c30.8-0.9,55.2-3.1,72.6-7c14.4-3.4,23.4-7.7,26.3-13.2c-0.7-3.6-3.1-6.4-6.7-8.7c-24-14.4-89.5-4.6-109.5-0.6
	c-23.8,4.8-40.7,16-66.4,17.1c-25.5,1.1-55.7-5.5-85.1-12.1c-3.6-0.8-7.1-1.6-10.3-2.3v84.7c14-2.3,28.9-5.1,43.4-8
	c18.5-3.6,49.8-9.6,61.7-10.2c26.4-1.5,85,2.3,106.3-0.6c24.9-3.4,42.5-3.3,67.5-11.1c38.5-12.2,67-25.6,105.2-48.2
	c9.8-5.8,15.4-13.7,6.1-18.5c-5.8-3-15-3.2-24.8,1.7c-0.2,0.1-0.3,0.2-0.5,0.2C363.5,334.6,337.5,343.3,310.9,348.1L310.9,348.1z
	 M20.4,323.3c6.4,1.4,11.5,2.5,16.5,3.6c28.7,6.3,58.3,12.8,82.3,11.9c2.6-0.1,5.1-0.3,7.5-0.7c-91-54-107.3-179.6-32-254.9
	c63.5-63.5,166.5-63.5,230,0c70.2,70.2,61.4,186-17.7,245.3c2.3,2.4,4.1,5.2,5.1,8.4c11.4-2.3,22.6-5.1,33.9-8.5
	c13-4,26.1-8.4,39.4-13.2c13-6.3,25.9-5.7,34.2-1.5c6.6,3.5,11.3,9.5,10.7,17.1c-0.5,6.7-5.3,14-16.1,20.4
	c-38.8,22.9-68.4,36.8-107.6,49.2c-26.2,8.2-43.6,8-69.2,11.5c-23.9,3.3-80.5-1.1-107.2,0.7c-16.4,1.6-37.7,5.7-60.3,10.1
	c-16.4,3.2-33.3,6.4-50,9c-3.3,0.5-6.2-2.1-6.2-5.3v-97.7C13.5,324.9,17.1,322.3,20.4,323.3L20.4,323.3z M142.8,334.5
	c14.2-4.2,25.1-9.4,41.1-12.6c23.2-4.7,85.9-13.5,113.8,0c76.4-54.4,85.9-164.5,19.4-231.1c-59.3-59.3-155.4-59.3-214.7,0
	c-50.1,50.1-59,128.4-21,188.4C96.3,302.9,117.7,322.1,142.8,334.5L142.8,334.5z M180.3,222.8c-5,5-12.6-2.6-7.6-7.6l26.8-26.8
	c-13.2-10.1-6.7-31.4,10.2-32c9.2-0.3,16.7,6.1,18.2,15.5c0.3,1.7-0.2,3.6-1.5,4.9L180.3,222.8z M207.2,180.5l9.3-9.3
	c-3.1-6.7-13.1-4.6-13.3,2.7c-0.1,2.7,1.3,5,3.6,6.3C206.9,180.4,207,180.4,207.2,180.5L207.2,180.5z M192.4,234.9
	c-5,5-12.6-2.6-7.7-7.7l46-45.9c4.1-4.1,12.6,0.6,16,4.4c9.9,11.2,2.4,29-12.8,29.5c-5.8,0.2-11.4-2.6-14.7-7.1L192.4,234.9z
	 M236.3,191l-9.3,6.1c0.9,0.8,1.2,1.4,3,2.1c6.7,2.5,13.9-3.2,8.7-7.1L236.3,191z M166.6,241l12.3,12.3c23.2-11.3,61-11.5,76.7-22.9
	c33.8-24.6,35.7-69.8,2.1-94.2c-27-19.7-61.4-10.3-80.4,15.9c-11.5,15.8-12,53.9-22.9,76.7L166.6,241z M186.5,261.7
	c4.4,8.2-3.1,18.9-11.9,20.8c-2.3,9.9-15.3,18-23.6,9.8l-0.7-0.7c-8,3.8-19.1,10.5-26.6,2.9L113,283.8c-7.5-7.5-0.9-18.6,2.9-26.6
	l-0.7-0.7c-8.2-8.3-0.2-21.3,9.8-23.6c2-8.8,12.6-16.3,20.8-11.9c9.1-21.9,9.8-57.7,22.5-75.3c28.9-39.8,83.1-41.6,111.8-2.1
	c23.1,31.9,12.6,73-18.3,95.5C244.2,252,208.7,252.4,186.5,261.7L186.5,261.7z M176.8,266.5L141,230.8c-1.4-1.4-6.5,3.9-5.1,5.1
	l35.8,35.9C172.9,273,178.1,267.9,176.8,266.5L176.8,266.5z M123,248.7l35.8,35.9c1.4,1.4,6.5-3.9,5.2-5.2l-35.9-35.8
	C126.7,242.2,121.6,247.4,123,248.7L123,248.7z M293.5,106.4c5-5,12.6,2.6,7.6,7.7l-14.5,14.6c-5,5-12.6-2.7-7.7-7.7L293.5,106.4z
	 M153.1,109.8c-5-5,2.7-12.6,7.7-7.6l14.6,14.6c5,5-2.6,12.6-7.7,7.7L153.1,109.8z M223.9,78.5c0-7.1,10.8-7.1,10.8,0v20.6
	c0,7.1-10.8,7.1-10.8,0V78.5z M306,247.3c5,5-2.6,12.6-7.6,7.7l-14.6-14.6c-5-5,2.6-12.6,7.7-7.7L306,247.3z M328,172.9
	c7.1,0,7.1,10.8,0,10.8h-20.6c-7.1,0-7.1-10.8,0-10.8H328z M124.2,265.2c-0.9,2-4.8,9.4-3.4,10.9l10.7,10.7
	c1.5,1.5,8.9-2.5,10.8-3.4L124.2,265.2z"/>
</svg>
